<svg xmlns="http://www.w3.org/2000/svg" viewBox="0 0 250.85 81.69">
	<defs>
		<style>.cls-1{fill: rgb(245, 245, 235);}</style>
	</defs>
	<title>Element 2</title>
	<g id="Ebene_2" data-name="Ebene 2">
		<g id="object">
			<polygon class="cls-1" points="124.57 49.82 103.59 33.29 82.6 49.82 61.62 33.29 40.63 49.82 19.66 33.3 0.72 49.54 0 48.7 19.63 31.88 40.63 48.42 61.62 31.89 82.6 48.42 103.59 31.89 124.57 48.42 145.56 31.89 166.55 48.42 187.54 31.89 208.52 48.42 229.51 31.89 250.84 48.69 250.16 49.55 229.51 33.29 208.52 49.82 187.54 33.29 166.55 49.82 145.56 33.29 124.57 49.82"/>
			<polygon class="cls-1" points="124.57 81.69 103.59 65.17 82.6 81.69 61.62 65.17 40.63 81.69 19.66 65.18 0.72 81.41 0 80.58 19.63 63.75 40.63 80.29 61.62 63.76 82.6 80.29 103.59 63.76 124.57 80.29 145.56 63.76 166.55 80.29 187.54 63.76 208.52 80.29 229.51 63.76 250.84 80.56 250.16 81.43 229.51 65.17 208.52 81.69 187.54 65.17 166.55 81.69 145.56 65.17 124.57 81.69"/>
			<polygon class="cls-1" points="124.57 17.94 103.59 1.41 82.6 17.94 61.62 1.41 40.63 17.94 19.66 1.43 0.72 17.66 0 16.82 19.63 0 40.63 16.54 61.62 0.01 82.6 16.54 103.59 0.01 124.57 16.54 145.56 0.01 166.55 16.54 187.54 0.01 208.52 16.54 229.51 0.01 250.84 16.81 250.16 17.68 229.51 1.41 208.52 17.94 187.54 1.41 166.55 17.94 145.56 1.41 124.57 17.94"/>
		</g>
	</g>
</svg>