<svg xmlns="http://www.w3.org/2000/svg" 
	xmlns:xlink="http://www.w3.org/1999/xlink" viewBox="0 0 82.02 109">
	<defs>
		<style>.cls-1,.cls-2{fill:none;}.cls-2{stroke:#1d1d1b;stroke-width:1.44px;}.cls-3{isolation:isolate;}.cls-4{fill:url(#_10_lpp_20_);}.cls-5{fill:rgb(255, 164, 137);mix-blend-mode:multiply;}</style>
		<pattern id="_10_lpp_20_" data-name="10 lpp 20%" width="72" height="72" patternTransform="matrix(0.88, -0.88, -0.88, -0.88, -98.84, -92.95)" patternUnits="userSpaceOnUse" viewBox="0 0 72 72">
			<rect class="cls-1" width="72" height="72"/>
			<line class="cls-2" x1="71.75" y1="68.4" x2="144.25" y2="68.4"/>
			<line class="cls-2" x1="71.75" y1="54" x2="144.25" y2="54"/>
			<line class="cls-2" x1="71.75" y1="39.6" x2="144.25" y2="39.6"/>
			<line class="cls-2" x1="71.75" y1="25.2" x2="144.25" y2="25.2"/>
			<line class="cls-2" x1="71.75" y1="10.8" x2="144.25" y2="10.8"/>
			<line class="cls-2" x1="71.75" y1="61.2" x2="144.25" y2="61.2"/>
			<line class="cls-2" x1="71.75" y1="46.8" x2="144.25" y2="46.8"/>
			<line class="cls-2" x1="71.75" y1="32.4" x2="144.25" y2="32.4"/>
			<line class="cls-2" x1="71.75" y1="18" x2="144.25" y2="18"/>
			<line class="cls-2" x1="71.75" y1="3.6" x2="144.25" y2="3.6"/>
			<line class="cls-2" x1="-0.25" y1="68.4" x2="72.25" y2="68.4"/>
			<line class="cls-2" x1="-0.25" y1="54" x2="72.25" y2="54"/>
			<line class="cls-2" x1="-0.25" y1="39.6" x2="72.25" y2="39.6"/>
			<line class="cls-2" x1="-0.25" y1="25.2" x2="72.25" y2="25.2"/>
			<line class="cls-2" x1="-0.25" y1="10.8" x2="72.25" y2="10.8"/>
			<line class="cls-2" x1="-0.25" y1="61.2" x2="72.25" y2="61.2"/>
			<line class="cls-2" x1="-0.25" y1="46.8" x2="72.25" y2="46.8"/>
			<line class="cls-2" x1="-0.25" y1="32.4" x2="72.25" y2="32.4"/>
			<line class="cls-2" x1="-0.25" y1="18" x2="72.25" y2="18"/>
			<line class="cls-2" x1="-0.25" y1="3.6" x2="72.25" y2="3.6"/>
			<line class="cls-2" x1="-72.25" y1="68.4" x2="0.25" y2="68.4"/>
			<line class="cls-2" x1="-72.25" y1="54" x2="0.25" y2="54"/>
			<line class="cls-2" x1="-72.25" y1="39.6" x2="0.25" y2="39.6"/>
			<line class="cls-2" x1="-72.25" y1="25.2" x2="0.25" y2="25.2"/>
			<line class="cls-2" x1="-72.25" y1="10.8" x2="0.25" y2="10.8"/>
			<line class="cls-2" x1="-72.25" y1="61.2" x2="0.25" y2="61.2"/>
			<line class="cls-2" x1="-72.25" y1="46.8" x2="0.25" y2="46.8"/>
			<line class="cls-2" x1="-72.25" y1="32.4" x2="0.25" y2="32.4"/>
			<line class="cls-2" x1="-72.25" y1="18" x2="0.25" y2="18"/>
			<line class="cls-2" x1="-72.25" y1="3.6" x2="0.25" y2="3.6"/>
		</pattern>
	</defs>
	<title>Element 4</title>
	<g class="cls-3">
		<g id="Ebene_2" data-name="Ebene 2">
			<g id="BACKGROUND">
				<polygon class="cls-4" points="41.01 71.04 0 0 82.03 0 41.01 71.04"/>
				<polygon class="cls-5" points="41.01 109 0 37.96 82.03 37.96 41.01 109"/>
			</g>
		</g>
	</g>
</svg>