<svg xmlns="http://www.w3.org/2000/svg" viewBox="0 0 275.65 1325.66"><defs><style>.cls-1{fill: rgba(98, 124, 129, 0.2);}</style></defs><g id="Ebene_2" data-name="Ebene 2"><g id="Ebene_2-2" data-name="Ebene 2"><path class="cls-1" d="M272,749.59v34.29a6.22,6.22,0,0,1-6.22,6.22H45.89a3.45,3.45,0,0,0-3.44,3.45v40.59a6.22,6.22,0,0,1-6.22,6.22h-26A6.21,6.21,0,0,1,4,834.14V749.59a6.21,6.21,0,0,1,6.22-6.22H265.8A6.22,6.22,0,0,1,272,749.59Z"/><path class="cls-1" d="M151.31,121.5V91.31a4.87,4.87,0,0,0-4.87-4.87H7.59a4.86,4.86,0,0,1-4.86-4.87V44.09a4.85,4.85,0,0,1,4.86-4.86H146.44a4.87,4.87,0,0,0,4.87-4.87V4.87A4.87,4.87,0,0,1,156.17,0H185a4.87,4.87,0,0,1,4.86,4.87V34.36a4.87,4.87,0,0,0,4.87,4.87h18.94a4.86,4.86,0,0,1,4.87,4.86V81.57a4.87,4.87,0,0,1-4.87,4.87H194.71a4.87,4.87,0,0,0-4.87,4.87V121.5a4.87,4.87,0,0,1-4.86,4.86H156.17A4.87,4.87,0,0,1,151.31,121.5Z"/><path class="cls-1" d="M191.7,1046.29V947.12a6.48,6.48,0,0,0-6.48-6.48H10.48A6.48,6.48,0,0,0,4,947.12v33.54a6.48,6.48,0,0,0,6.48,6.48H139.73A12.31,12.31,0,0,1,152,999.45v30.77c0,26-15.73,43.08-39.66,43.08H10.48A6.48,6.48,0,0,0,4,1079.78v33.54a6.48,6.48,0,0,0,6.48,6.48H119.9C163,1119.8,191.7,1090.39,191.7,1046.29Z"/><path class="cls-1" d="M192.7,442.64c0-22.29-7.8-42.06-22.66-55.57a5.53,5.53,0,0,1,.16-8.33c14.27-12.16,22.5-30.12,22.5-51.93,0-.33,0-.63,0-1h0V231.36a5.61,5.61,0,0,0-5.61-5.61H9.61A5.61,5.61,0,0,0,4,231.36v35.53a5.61,5.61,0,0,0,5.61,5.61H144.48a8.35,8.35,0,0,1,8.35,8.35v29.46c0,23-15.81,38.15-39.87,38.15H9.61A5.61,5.61,0,0,0,4,354.07V389.6a5.61,5.61,0,0,0,5.61,5.61H113c24.06,0,39.87,15.12,39.87,37.81,0,23-15.81,38.15-39.87,38.15H9.61A5.61,5.61,0,0,0,4,476.78v35.53a5.61,5.61,0,0,0,5.61,5.6H120.52C163.83,517.91,192.7,487.67,192.7,442.64Z"/><path class="cls-1" d="M241.51,148.34c20.1-2.68,34.85,12.08,32.18,32.18A26.54,26.54,0,0,1,251,203c-20.31,2.68-34.67-11.68-32-32A26.52,26.52,0,0,1,241.51,148.34Zm-53.09,11.44V192a7.28,7.28,0,0,1-7.28,7.29H10.44A7.28,7.28,0,0,1,3.16,192V159.78a7.28,7.28,0,0,1,7.28-7.29h170.7A7.28,7.28,0,0,1,188.42,159.78Z"/><path class="cls-1" d="M99.29,722.63c56.18,0,93.41-37.23,93.41-92.73,0-55.84-38.95-92.72-97.55-92.72C37.93,537.18,0,575.1,0,632c0,0-2,66.39,50.25,84.66a6.59,6.59,0,0,0,8.67-6.28V676.83l0-.05,0,0v0h0c-13.42-11-22-26.52-22-45.46,0-24.32,13.2-37.92,34.69-43a6.61,6.61,0,0,1,8,6.46v120.6a6.57,6.57,0,0,0,5.92,6.56C90,722.32,94.86,722.63,99.29,722.63Zm12.06-127.9a6.63,6.63,0,0,1,8.06-6.47c23.27,5.33,36.41,19.29,36.41,41.64,0,22.71-13.19,37-36.54,42.1a6.6,6.6,0,0,1-7.93-6.48Z"/><path class="cls-1" d="M243.07,862.7C263.22,860,278,874.82,275.34,895a26.59,26.59,0,0,1-22.79,22.58c-20.37,2.7-34.77-11.7-32.08-32.07A26.61,26.61,0,0,1,243.07,862.7Zm-53.26,11.47v32.28a7.3,7.3,0,0,1-7.3,7.3H11.3a7.3,7.3,0,0,1-7.3-7.3V874.17a7.3,7.3,0,0,1,7.3-7.3H182.51A7.3,7.3,0,0,1,189.81,874.17Z"/><path class="cls-1" d="M99.3,1325.66c56.19,0,93.42-37.23,93.42-92.73,0-55.84-38.95-92.72-97.55-92.72C38,1140.21,0,1178.13,0,1235c0,0-2,66.39,50.25,84.66a6.59,6.59,0,0,0,8.67-6.28v-33.52l0,0,0,0v0h0c-13.42-11-22-26.52-22-45.46,0-24.32,13.2-37.92,34.69-43a6.61,6.61,0,0,1,8.06,6.46v120.6a6.57,6.57,0,0,0,5.92,6.56C90,1325.35,94.88,1325.66,99.3,1325.66Zm12.07-127.9a6.63,6.63,0,0,1,8.06-6.47c23.26,5.33,36.41,19.29,36.41,41.64,0,22.71-13.2,37-36.54,42.1a6.59,6.59,0,0,1-7.93-6.48Z"/></g></g></svg>