<svg xmlns="http://www.w3.org/2000/svg" viewBox="0 0 1325.66 275.65"><defs><style>.cls-1{fill: rgba(0, 0, 0, 0.1);}</style></defs><g id="Ebene_2" data-name="Ebene 2"><g id="Ebene_2-2" data-name="Ebene 2"><path class="cls-1" d="M121.5,124.34H91.31a4.87,4.87,0,0,0-4.87,4.87V268.06a4.87,4.87,0,0,1-4.87,4.87H44.09a4.86,4.86,0,0,1-4.86-4.87V129.21a4.87,4.87,0,0,0-4.87-4.87H4.87A4.86,4.86,0,0,1,0,119.48V90.67a4.87,4.87,0,0,1,4.87-4.86H34.36a4.87,4.87,0,0,0,4.87-4.87V62a4.86,4.86,0,0,1,4.86-4.87H81.57A4.87,4.87,0,0,1,86.44,62V80.94a4.87,4.87,0,0,0,4.87,4.87H121.5a4.87,4.87,0,0,1,4.86,4.86v28.81A4.86,4.86,0,0,1,121.5,124.34Z"/><path class="cls-1" d="M1046.29,84H947.12a6.48,6.48,0,0,0-6.48,6.48V265.17a6.48,6.48,0,0,0,6.48,6.48h33.54a6.48,6.48,0,0,0,6.48-6.48V135.92a12.31,12.31,0,0,1,12.31-12.31h30.77c26,0,43.08,15.73,43.08,39.66v101.9a6.48,6.48,0,0,0,6.48,6.48h33.54a6.48,6.48,0,0,0,6.48-6.48V155.75C1119.8,112.67,1090.39,84,1046.29,84Z"/><path class="cls-1" d="M442.64,83c-22.29,0-42.06,7.8-55.57,22.66a5.53,5.53,0,0,1-8.33-.16C366.58,91.18,348.62,83,326.81,83c-.33,0-.63,0-1,0v0H231.36a5.61,5.61,0,0,0-5.61,5.61V266a5.61,5.61,0,0,0,5.61,5.61h35.53A5.61,5.61,0,0,0,272.5,266V131.17a8.35,8.35,0,0,1,8.35-8.35h29.46c23,0,38.15,15.81,38.15,39.87V266a5.61,5.61,0,0,0,5.61,5.61H389.6a5.61,5.61,0,0,0,5.61-5.61V162.69c0-24.06,15.12-39.87,37.81-39.87,23,0,38.15,15.81,38.15,39.87V266a5.61,5.61,0,0,0,5.61,5.61h35.53a5.61,5.61,0,0,0,5.6-5.61V155.13C517.91,111.82,487.67,83,442.64,83Z"/><path class="cls-1" d="M749.59,3.63h34.29a6.22,6.22,0,0,1,6.22,6.22V229.76a3.45,3.45,0,0,0,3.45,3.44h40.59a6.22,6.22,0,0,1,6.22,6.22v26.05a6.22,6.22,0,0,1-6.22,6.23H749.59a6.22,6.22,0,0,1-6.22-6.23V9.85A6.22,6.22,0,0,1,749.59,3.63Z"/><path class="cls-1" d="M148.34,34.14C145.66,14,160.42-.71,180.52,2A26.54,26.54,0,0,1,203,24.68c2.68,20.31-11.68,34.67-32,32A26.52,26.52,0,0,1,148.34,34.14Zm11.44,53.09H192a7.28,7.28,0,0,1,7.29,7.28v170.7a7.28,7.28,0,0,1-7.29,7.28H159.78a7.28,7.28,0,0,1-7.29-7.28V94.51A7.28,7.28,0,0,1,159.78,87.23Z"/><path class="cls-1" d="M722.63,176.37C722.63,120.18,685.4,83,629.9,83c-55.84,0-92.72,39-92.72,97.55,0,57.22,37.92,95.14,94.79,95.14,0,0,66.39,2,84.66-50.25a6.59,6.59,0,0,0-6.28-8.67H676.83l-.05,0,0,0h0v0c-11,13.42-26.52,22-45.46,22-24.32,0-37.92-13.21-43-34.7a6.61,6.61,0,0,1,6.46-8.05h120.6a6.57,6.57,0,0,0,6.56-5.92C722.32,185.68,722.63,180.79,722.63,176.37ZM594.73,164.3a6.63,6.63,0,0,1-6.47-8.06c5.33-23.27,19.29-36.41,41.64-36.41,22.71,0,37,13.2,42.1,36.54a6.6,6.6,0,0,1-6.48,7.93Z"/><path class="cls-1" d="M862.7,32.59C860,12.43,874.82-2.37,895,.31A26.59,26.59,0,0,1,917.56,23.1c2.7,20.37-11.7,34.77-32.07,32.08A26.61,26.61,0,0,1,862.7,32.59Zm11.47,53.25h32.28a7.3,7.3,0,0,1,7.3,7.3V264.35a7.3,7.3,0,0,1-7.3,7.3H874.17a7.3,7.3,0,0,1-7.3-7.3V93.14A7.3,7.3,0,0,1,874.17,85.84Z"/><path class="cls-1" d="M1325.66,176.35c0-56.19-37.23-93.42-92.73-93.42-55.84,0-92.72,38.95-92.72,97.55,0,57.22,37.92,95.14,94.79,95.14,0,0,66.39,2,84.66-50.25a6.59,6.59,0,0,0-6.28-8.67h-33.52l0,0,0,0h0v0c-11,13.42-26.52,22-45.46,22-24.32,0-37.92-13.2-43-34.69a6.61,6.61,0,0,1,6.46-8.05h120.6a6.58,6.58,0,0,0,6.56-5.93C1325.35,185.66,1325.66,180.77,1325.66,176.35Zm-127.9-12.07a6.63,6.63,0,0,1-6.47-8.06c5.33-23.26,19.29-36.41,41.64-36.41,22.71,0,37,13.2,42.1,36.54a6.59,6.59,0,0,1-6.48,7.93Z"/></g></g></svg>