<svg xmlns="http://www.w3.org/2000/svg" 
	xmlns:xlink="http://www.w3.org/1999/xlink" viewBox="0 0 114.53 114.53">
	<defs>
		<style>.cls-1,.cls-2,.cls-3{fill:none;}.cls-2{stroke:rgb(245, 245, 235);stroke-width:1.44px;}.cls-3{stroke:rgb(245, 245, 235); stroke-miterlimit:10;stroke-width:2px;}.cls-4{fill:rgb(159, 212, 202);}.cls-5{fill:url(#_10_lpp_20_);}</style>
		<pattern id="_10_lpp_20_" data-name="10 lpp 20%" width="72" height="72" patternTransform="translate(-135.55 -9.1) rotate(-90) scale(1.13)" patternUnits="userSpaceOnUse" viewBox="0 0 72 72">
			<rect class="cls-1" width="72" height="72"/>
			<line class="cls-2" x1="71.75" y1="68.4" x2="144.25" y2="68.4"/>
			<line class="cls-2" x1="71.75" y1="54" x2="144.25" y2="54"/>
			<line class="cls-2" x1="71.75" y1="39.6" x2="144.25" y2="39.6"/>
			<line class="cls-2" x1="71.75" y1="25.2" x2="144.25" y2="25.2"/>
			<line class="cls-2" x1="71.75" y1="10.8" x2="144.25" y2="10.8"/>
			<line class="cls-2" x1="71.75" y1="61.2" x2="144.25" y2="61.2"/>
			<line class="cls-2" x1="71.75" y1="46.8" x2="144.25" y2="46.8"/>
			<line class="cls-2" x1="71.75" y1="32.4" x2="144.25" y2="32.4"/>
			<line class="cls-2" x1="71.75" y1="18" x2="144.25" y2="18"/>
			<line class="cls-2" x1="71.75" y1="3.6" x2="144.25" y2="3.6"/>
			<line class="cls-2" x1="-0.25" y1="68.4" x2="72.25" y2="68.4"/>
			<line class="cls-2" x1="-0.25" y1="54" x2="72.25" y2="54"/>
			<line class="cls-2" x1="-0.25" y1="39.6" x2="72.25" y2="39.6"/>
			<line class="cls-2" x1="-0.25" y1="25.2" x2="72.25" y2="25.2"/>
			<line class="cls-2" x1="-0.25" y1="10.8" x2="72.25" y2="10.8"/>
			<line class="cls-2" x1="-0.25" y1="61.2" x2="72.25" y2="61.2"/>
			<line class="cls-2" x1="-0.25" y1="46.8" x2="72.25" y2="46.8"/>
			<line class="cls-2" x1="-0.25" y1="32.4" x2="72.25" y2="32.4"/>
			<line class="cls-2" x1="-0.25" y1="18" x2="72.25" y2="18"/>
			<line class="cls-2" x1="-0.25" y1="3.6" x2="72.25" y2="3.6"/>
			<line class="cls-2" x1="-72.25" y1="68.4" x2="0.25" y2="68.4"/>
			<line class="cls-2" x1="-72.25" y1="54" x2="0.25" y2="54"/>
			<line class="cls-2" x1="-72.25" y1="39.6" x2="0.25" y2="39.6"/>
			<line class="cls-2" x1="-72.25" y1="25.2" x2="0.25" y2="25.2"/>
			<line class="cls-2" x1="-72.25" y1="10.8" x2="0.25" y2="10.8"/>
			<line class="cls-2" x1="-72.25" y1="61.2" x2="0.25" y2="61.2"/>
			<line class="cls-2" x1="-72.25" y1="46.8" x2="0.25" y2="46.8"/>
			<line class="cls-2" x1="-72.25" y1="32.4" x2="0.25" y2="32.4"/>
			<line class="cls-2" x1="-72.25" y1="18" x2="0.25" y2="18"/>
			<line class="cls-2" x1="-72.25" y1="3.6" x2="0.25" y2="3.6"/>
		</pattern>
	</defs>
	<title>Element 5</title>
	<g id="Ebene_2" data-name="Ebene 2">
		<g id="BACKGROUND">
			<rect class="cls-3" x="1" y="56.76" width="56.76" height="56.76"/>
			<rect class="cls-4" x="29.38" y="28.38" width="56.76" height="56.76"/>
			<rect class="cls-5" x="57.76" width="56.76" height="56.76"/>
		</g>
	</g>
</svg>